# xmcd
#
# Track frame offsets: 
#        150
#        24425
#        43912
#        66265
#        87532
#        103687
#        124437
#        142045
#        160215
#        183510
#        204512
#        223710
#        240540
#        259727
#        274762
#
# Disc length: 3972 seconds
#
# Revision: 20
# Processed by: cddbd v1.5.2PL0 Copyright (c) Steve Scherf et al.
# Submitted via: ExactAudioCopy v0.99pb4
#
DISCID=e80f820f
DTITLE=Tim McGraw - Tim McGraw And The Dancehall Doctors
DYEAR=2002
DGENRE=Country
TTITLE0=Comfort Me
TTITLE1=Tickin' Away
TTITLE2=Home
TTITLE3=Red Ragtop
TTITLE4=That's Why God Made Mexico
TTITLE5=Watch The Wind Blow By
TTITLE6=Illegal
TTITLE7=Sleep Tonight
TTITLE8=I Know How To Love You Well
TTITLE9=Sing Me Home
TTITLE10=She's My Kind Of Rain
TTITLE11=Who Are They
TTITLE12=Real Good Men
TTITLE13=All We Ever Find
TTITLE14=Tiny Dancer
EXTD=YEAR: 2002
EXTT0=
EXTT1=
EXTT2=
EXTT3=
EXTT4=
EXTT5=
EXTT6=
EXTT7=
EXTT8=
EXTT9=
EXTT10=
EXTT11=
EXTT12=
EXTT13=
EXTT14=
PLAYORDER=
